# xmcd
#
# Track frame offsets:
#	150
#	16198
#	28852
#	44699
#	56534
#	69696
#	86011
#	98513
#	114790
#	132090
#	148032
#	170820
#
# Disc length: 2513
#
# Revision: 2
# Processed by: cddbd v1.5.1PL0 Copyright (c) Steve Scherf et al.
# Submitted via: CDex 1.30
# Normalized: r1:TDELIM( - )
#
DISCID=a109cf0c
DTITLE=Various Artist - New Country Classics - Jukebox Classics
DYEAR=2001
DGENRE=Country
TTITLE0=Paul Overstreet - Daddy's Come Home
TTITLE1=Aaron Tippin - There Ain't Nothin' Wrong With The Radio
TTITLE2=Clint Black - Nobody's Home
TTITLE3=Martina McBride - My Baby Lives Me
TTITLE4=John Anderson - Straight Tequila Night
TTITLE5=Dan Seals - Bop
TTITLE6=Lorrie Morgan - What Part Of No
TTITLE7=Keith Whitley - I'm No Stranger To The Rain
TTITLE8=Earl Thomas Conley - Love Out Loud
TTITLE9=Alabama - Jukebox In My Mind
TTITLE10=K. T. Oslin - Hold Me
TTITLE11=Restless Heart - Bluest Eyes In Texas
EXTD=\nYEAR: 2001  ID3G:   2
EXTT0=
EXTT1=
EXTT2=
EXTT3=
EXTT4=
EXTT5=
EXTT6=
EXTT7=
EXTT8=
EXTT9=
EXTT10=
EXTT11=
PLAYORDER=
